#!OML:ASF H:\ManfredETheater\Project 1\Capture day 1\Session 1\subject.ASF
:FULLY-SPECIFIED
:DEGREES
109
root -9.07452 16.8407 37.5817 -165.007 22.3133 180.279
lowerback 11.3474 2.78364 4.27286
upperback -1.65068 4.73244 3.19956
thorax -8.0719 2.24906 0.13428
lowerneck -15.6249 3.88777 1.6836
upperneck 6.53901 5.96049 -8.26322
head 4.81423 2.53134 -2.32151
rclavicle 1.19271e-014 -3.33958e-014
rhumerus -30.7824 2.10305 -82.8575
rradius 38.6143
rwrist 1.57126
rhand -17.1961 -11.5004
rfingers 7.12502
rthumb 9.0461 -41.2865
lclavicle 1.19271e-014 -3.33958e-014
lhumerus -32.7356 -1.43872 92.8194
lradius 39.3111
lwrist -3.79645
lhand -10.8728 -0.410619
lfingers 7.12502
lthumb 15.1431 29.0154
rfemur -15.2817 -6.35486 22.8818
rtibia 31.0036
rfoot -24.4406 -18.4592
rtoes -29.4909
lfemur -45.3385 6.21706 -13.9765
ltibia 63.1392
lfoot -16.6337 -10.1139
ltoes -2.9231
110
root -9.08282 16.833 37.5087 -164.706 22.548 180.288
lowerback 11.524 2.85145 4.36742
upperback -1.65962 4.8524 3.20881
thorax -8.17415 2.30116 0.0601252
lowerneck -15.6273 3.91071 1.68167
upperneck 6.3318 6.00142 -8.39552
head 4.7574 2.55357 -2.35928
rclavicle 1.35174e-014 -2.06736e-014
rhumerus -30.5423 2.64366 -83.1144
rradius 38.5408
rwrist 1.50877
rhand -17.294 -11.5236
rfingers 7.12502
rthumb 8.9516 -41.3136
lclavicle 1.35174e-014 -2.06736e-014
lhumerus -32.8924 -1.52351 93.0184
lradius 39.4517
lwrist -3.62697
lhand -11.4537 -0.523136
lfingers 7.12502
lthumb 14.5834 28.9442
rfemur -15.318 -6.39454 22.7245
rtibia 30.905
rfoot -24.6488 -18.5414
rtoes -30.1405
lfemur -45.8429 6.57437 -14.1227
ltibia 63.5909
lfoot -16.7883 -10.0183
ltoes -2.93005
111
root -9.08992 16.8258 37.4317 -164.397 22.7707 180.298
lowerback 11.6846 2.9159 4.45871
upperback -1.66821 4.96722 3.22178
thorax -8.26725 2.35119 -0.00692899
lowerneck -15.6317 3.93449 1.68348
upperneck 6.13266 6.04404 -8.53432
head 4.70397 2.57639 -2.39944
rclavicle -4.29375e-014 -2.06736e-014
rhumerus -30.2884 3.17887 -83.3797
rradius 38.4535
rwrist 1.45293
rhand -17.3883 -11.5755
rfingers 7.12502
rthumb 8.86067 -41.3695
lclavicle -4.29375e-014 -2.06736e-014
lhumerus -33.0517 -1.60787 93.2258
lradius 39.5635
lwrist -3.47062
lhand -12.0076 -0.542052
lfingers 7.12502
lthumb 14.0496 28.9631
rfemur -15.3235 -6.4425 22.5675
rtibia 30.7654
rfoot -24.856 -18.649
rtoes -30.7537
lfemur -46.3441 6.92716 -14.2714
ltibia 64.0161
lfoot -16.933 -9.85377
ltoes -2.94381
112
root -9.09584 16.8188 37.3508 -164.078 22.9761 180.317
lowerback 11.8343 2.97607 4.55182
upperback -1.67735 5.07745 3.24233
thorax -8.35514 2.39935 -0.0659478
lowerneck -15.6401 3.95887 1.68776
upperneck 5.93886 6.08866 -8.68228
head 4.65352 2.5999 -2.44256
rclavicle 7.15625e-015 1.74931e-014
rhumerus -30.0226 3.7019 -83.6489
rradius 38.3541
rwrist 1.40629
rhand -17.4827 -11.651
rfingers 7.12502
rthumb 8.76959 -41.4488
lclavicle 7.15625e-015 1.74931e-014
lhumerus -33.2127 -1.68871 93.4433
lradius 39.6444
lwrist -3.3306
lhand -12.5234 -0.464426
lfingers 7.12502
lthumb 13.5526 29.0745
rfemur -15.2981 -6.50586 22.4193
rtibia 30.5868
rfoot -25.0568 -18.7854
rtoes -31.3329
lfemur -46.8457 7.28094 -14.416
ltibia 64.4189
lfoot -17.0698 -9.65009
ltoes -2.97317
113
root -9.10069 16.8114 37.2659 -163.747 23.1606 180.346
lowerback 11.9709 3.03353 4.65452
upperback -1.68141 5.18557 3.26765
thorax -8.42949 2.44667 -0.124301
lowerneck -15.6769 3.98078 1.69729
upperneck 5.75618 6.1313 -8.839
head 4.61163 2.62152 -2.48892
rclavicle -5.80451e-014 -4.77083e-014
rhumerus -29.7231 4.18653 -83.9181
rradius 38.2258
rwrist 1.39655
rhand -17.5714 -11.6923
rfingers 7.12502
rthumb 8.684 -41.4936
lclavicle -5.80451e-014 -4.77083e-014
lhumerus -33.3591 -1.78225 93.6686
lradius 39.696
lwrist -3.2205
lhand -13.0026 -0.301534
lfingers 7.12502
lthumb 13.0907 29.2676
rfemur -15.2439 -6.59179 22.282
rtibia 30.3761
rfoot -25.2571 -18.9442
rtoes -31.8525
lfemur -47.3509 7.63205 -14.5545
ltibia 64.8041
lfoot -17.201 -9.42698
ltoes -3.03679
114
root -9.10437 16.8032 37.1779 -163.405 23.3271 180.394
lowerback 12.1127 3.08858 4.76104
upperback -1.69001 5.29453 3.30722
thorax -8.51271 2.49465 -0.170643
lowerneck -15.7137 4.00101 1.70261
upperneck 5.57521 6.17422 -9.00474
head 4.57067 2.64315 -2.53734
rclavicle 3.49861e-014 -2.22639e-014
rhumerus -29.4236 4.66557 -84.1852
rradius 38.0979
rwrist 1.39339
rhand -17.6561 -11.7146
rfingers 7.12502
rthumb 8.60219 -41.5194
lclavicle 3.49861e-014 -2.22639e-014
lhumerus -33.5156 -1.87651 93.9067
lradius 39.7306
lwrist -3.13752
lhand -13.4365 -0.0691717
lfingers 7.12502
lthumb 12.6724 29.5264
rfemur -15.1644 -6.6834 22.1641
rtibia 30.1446
rfoot -25.4573 -19.1272
rtoes -32.2668
lfemur -47.862 7.99059 -14.6778
ltibia 65.1772
lfoot -17.3257 -9.21426
ltoes -3.14197
115
root -9.10697 16.7937 37.087 -163.056 23.4779 180.449
lowerback 12.247 3.14241 4.8712
upperback -1.69119 5.4023 3.3489
thorax -8.58329 2.54236 -0.216177
lowerneck -15.7653 4.01843 1.71109
upperneck 5.38613 6.21339 -9.17577
head 4.52981 2.66323 -2.58806
rclavicle 8.34896e-014 2.54444e-014
rhumerus -29.1021 5.12489 -84.4585
rradius 37.9713
rwrist 1.40136
rhand -17.7392 -11.7015
rfingers 7.12502
rthumb 8.52202 -41.5096
lclavicle 8.34896e-014 2.54444e-014
lhumerus -33.6488 -1.99613 94.1468
lradius 39.7295
lwrist -3.06287
lhand -13.8226 0.191219
lfingers 7.12502
lthumb 12.3002 29.8094
rfemur -15.0667 -6.76442 22.0493
rtibia 29.9071
rfoot -25.6879 -19.2926
rtoes -32.4736
lfemur -48.383 8.3529 -14.799
ltibia 65.5424
lfoot -17.4411 -9.03039
ltoes -3.28641
116
root -9.10843 16.7825 36.9937 -162.705 23.6178 180.512
lowerback 12.3932 3.2008 4.97673
upperback -1.68863 5.5172 3.39401
thorax -8.65698 2.59377 -0.257831
lowerneck -15.8367 4.03048 1.72297
upperneck 5.19562 6.24556 -9.34963
head 4.49165 2.67989 -2.64054
rclavicle 2.06736e-014 1.74931e-014
rhumerus -28.7656 5.57208 -84.7384
rradius 37.8448
rwrist 1.43013
rhand -17.85 -11.6059
rfingers 7.12502
rthumb 8.41512 -41.4183
lclavicle 2.06736e-014 1.74931e-014
lhumerus -33.7731 -2.15629 94.3936
lradius 39.7173
lwrist -2.98302
lhand -14.1489 0.453203
lfingers 7.12502
lthumb 11.9855 30.09
rfemur -14.9589 -6.82634 21.9397
rtibia 29.6776
rfoot -25.9351 -19.4237
rtoes -32.5051
lfemur -48.9134 8.72432 -14.9167
ltibia 65.9057
lfoot -17.5492 -8.89547
ltoes -3.4881
117
root -9.10905 16.769 36.8983 -162.352 23.7417 180.581
lowerback 12.5412 3.25631 5.08455
upperback -1.6809 5.6295 3.44217
thorax -8.72608 2.64411 -0.297317
lowerneck -15.8987 4.03915 1.72893
upperneck 4.98135 6.27287 -9.52163
head 4.44425 2.69589 -2.69218
rclavicle 7.31528e-014 -6.36111e-014
rhumerus -28.425 6.04568 -85.034
rradius 37.746
rwrist 1.45282
rhand -17.9972 -11.4699
rfingers 7.12502
rthumb 8.27304 -41.2879
lclavicle 7.31528e-014 -6.36111e-014
lhumerus -33.8927 -2.35859 94.6432
lradius 39.7065
lwrist -2.87952
lhand -14.4383 0.678785
lfingers 7.12502
lthumb 11.7064 30.3317
rfemur -14.8526 -6.87855 21.8332
rtibia 29.4708
rfoot -26.2091 -19.4702
rtoes -32.3607
lfemur -49.4587 9.09843 -15.0337
ltibia 66.2725
lfoot -17.6502 -8.82285
ltoes -3.72674
118
root -9.10884 16.753 36.8008 -161.998 23.8509 180.662
lowerback 12.7015 3.31224 5.19436
upperback -1.67107 5.74497 3.49519
thorax -8.80008 2.69596 -0.334467
lowerneck -15.9581 4.04291 1.72903
upperneck 4.75291 6.29361 -9.68931
head 4.39144 2.71 -2.74224
rclavicle 2.14687e-014 -2.38542e-014
rhumerus -28.0866 6.55679 -85.3455
rradius 37.6861
rwrist 1.46678
rhand -18.1736 -11.2868
rfingers 7.12502
rthumb 8.10278 -41.1115
lclavicle 2.14687e-014 -2.38542e-014
lhumerus -34.0149 -2.60603 94.8982
lradius 39.7058
lwrist -2.75222
lhand -14.6795 0.863531
lfingers 7.12502
lthumb 11.4739 30.5295
rfemur -14.7552 -6.92338 21.7353
rtibia 29.2984
rfoot -26.4909 -19.4302
rtoes -32.0978
lfemur -50.0195 9.47974 -15.1462
ltibia 66.6499
lfoot -17.7507 -8.82485
ltoes -4.02896
119
root -9.10796 16.7343 36.7013 -161.645 23.9414 180.749
lowerback 12.8719 3.36579 5.30654
upperback -1.65766 5.85953 3.55177
thorax -8.87597 2.74736 -0.369935
lowerneck -16.01 4.04214 1.72413
upperneck 4.50602 6.30806 -9.85455
head 4.33125 2.72265 -2.79151
rclavicle 3.57812e-014 0
rhumerus -27.7585 7.1281 -85.676
rradius 37.6906
rwrist 1.46053
rhand -18.3809 -11.0495
rfingers 7.12502
rthumb 7.90275 -40.8818
lclavicle 3.57812e-014 0
lhumerus -34.1376 -2.90287 95.1574
lradius 39.7238
lwrist -2.59314
lhand -14.898 0.995534
lfingers 7.12502
lthumb 11.2631 30.6732
rfemur -14.6735 -6.97514 21.6443
rtibia 29.1693
rfoot -26.7577 -19.3095
rtoes -31.781
lfemur -50.5994 9.86414 -15.2594
ltibia 67.0439
lfoot -17.8514 -8.9121
ltoes -4.35292
120
root -9.10624 16.7127 36.5997 -161.289 24.0144 180.847
lowerback 13.0448 3.41699 5.42539
upperback -1.64101 5.97313 3.61017
thorax -8.94924 2.79816 -0.407384
lowerneck -16.0534 4.03772 1.71464
upperneck 4.24264 6.31658 -10.0124
head 4.26393 2.73418 -2.83849
rclavicle 3.97569e-014 3.65764e-014
rhumerus -27.4387 7.76599 -86.0284
rradius 37.7649
rwrist 1.43977
rhand -18.609 -10.8009
rfingers 7.12502
rthumb 7.6826 -40.6413
lclavicle 3.97569e-014 3.65764e-014
lhumerus -34.2642 -3.2577 95.4186
lradius 39.77
lwrist -2.40239
lhand -15.1139 1.06536
lfingers 7.12502
lthumb 11.0549 30.7542
rfemur -14.6215 -7.05986 21.5721
rtibia 29.0882
rfoot -26.9447 -19.1464
rtoes -31.6039
lfemur -51.2042 10.2596 -15.3736
ltibia 67.4613
lfoot -17.9574 -9.08283
ltoes -4.73298
121
root -9.10382 16.688 36.496 -160.93 24.0616 180.956
lowerback 13.2251 3.46342 5.5527
upperback -1.62547 6.08387 3.67159
thorax -9.02735 2.84713 -0.446647
lowerneck -16.0886 4.0298 1.70583
upperneck 3.97186 6.31969 -10.1696
head 4.19282 2.7442 -2.88603
rclavicle -1.79701e-013 -3.81667e-014
rhumerus -27.135 8.47493 -86.3983
rradius 37.9249
rwrist 1.40779
rhand -18.8341 -10.5117
rfingers 7.12502
rthumb 7.46528 -40.36
lclavicle -1.79701e-013 -3.81667e-014
lhumerus -34.4016 -3.6659 95.6824
lradius 39.8488
lwrist -2.18858
lhand -15.3081 1.11622
lfingers 7.12502
lthumb 10.8675 30.815
rfemur -14.5989 -7.19386 21.5244
rtibia 29.0554
rfoot -27.0246 -19.0085
rtoes -31.6513
lfemur -51.8391 10.6595 -15.4902
ltibia 67.9076
lfoot -18.0728 -9.3342
ltoes -5.08715
